<?xml version="1.0" encoding="utf-8"?>
<!-- Generator: Adobe Illustrator 24.3.0, SVG Export Plug-In . SVG Version: 6.00 Build 0)  -->
<svg version="1.1" id="Layer_1" xmlns="http://www.w3.org/2000/svg" xmlns:xlink="http://www.w3.org/1999/xlink" x="0px" y="0px"
	 viewBox="0 0 595.28 841.89" style="enable-background:new 0 0 595.28 841.89;" xml:space="preserve">
<style type="text/css">
	.st0{fill-rule:evenodd;clip-rule:evenodd;}
</style>
<g>
	<path class="st0" d="M-489.98,421.02V421c-0.01-0.17-0.01-0.35-0.02-0.52c-0.33-17.08,13.26-31.21,30.34-31.54
		c14.56-0.28,38.11-1.42,74.81-4.7c27.36-2.45,39.65-21.91,45.82-39.91c7.64-22.27,6.92-43.77,6.92-43.76
		c-0.01-0.36-0.02-0.73-0.02-1.1c0,0-1.45-557.58,1.59-668.06c5.77-209.84,235.07-233.37,235.07-233.37c0.01,0,0.01,0,0.01,0
		c17-1.64,32.13,10.83,33.78,27.83c1.64,17-10.83,32.13-27.83,33.78c-0.01,0-0.01,0-0.02,0c0,0-174.8,15.5-179.15,173.47
		c-2.99,108.55-1.61,649.89-1.57,665.76c0.11,4.68,0.36,34.64-10.25,65.55c-7.04,20.51-18.53,41.14-36.69,56.58
		c18.17,15.44,29.65,36.07,36.69,56.58c10.59,30.84,10.36,60.74,10.25,65.47c-0.04,15.94-1.42,557.29,1.56,665.84
		c4.34,157.97,179.15,173.47,179.15,173.47c0.01,0,0.01,0,0.02,0c17,1.64,29.47,16.78,27.83,33.78c-1.64,17-16.78,29.47-33.78,27.83
		c0,0-0.01,0-0.01,0c0,0-229.3-23.54-235.07-233.37c-3.04-110.48-1.59-668.06-1.59-668.06c0-0.37,0.01-0.73,0.02-1.09
		c0,0,0.73-21.5-6.92-43.77c-6.18-18-18.47-37.46-45.82-39.91c-36.7-3.28-60.25-4.42-74.81-4.7c-17.07-0.33-30.67-14.46-30.34-31.54
		C-489.99,421.36-489.98,421.19-489.98,421.02L-489.98,421.02z M1084.1,421.02c0.01,0.17,0.01,0.34,0.01,0.51
		c0.33,17.08-13.26,31.21-30.34,31.54c-14.56,0.28-38.11,1.42-74.81,4.7c-27.36,2.45-39.65,21.91-45.82,39.91
		c-7.65,22.27-6.92,43.77-6.92,43.77c0.01,0.35,0.02,0.72,0.02,1.08c0,0,1.45,557.58-1.59,668.06
		c-5.77,209.84-235.07,233.37-235.07,233.37c0,0-0.01,0-0.01,0c-17,1.64-32.13-10.83-33.78-27.83c-1.64-17,10.83-32.13,27.83-33.78
		c0.01,0,0.01,0,0.02,0c0,0,174.8-15.5,179.15-173.47c2.98-108.55,1.6-649.89,1.56-665.84c-0.11-4.73-0.34-34.63,10.25-65.47
		c7.04-20.51,18.53-41.14,36.69-56.58c-18.17-15.44-29.65-36.07-36.69-56.58c-10.61-30.91-10.36-60.86-10.24-65.55
		c0.04-15.88,1.42-557.22-1.57-665.76c-4.34-157.97-179.15-173.47-179.15-173.47c-0.01,0-0.01,0-0.02,0
		c-17-1.64-29.47-16.78-27.83-33.78c1.64-17,16.78-29.47,33.78-27.83c0,0,0.01,0,0.01,0c0,0,229.3,23.54,235.07,233.37
		c3.04,110.48,1.59,668.06,1.59,668.06c0,0.37-0.01,0.73-0.02,1.1c0-0.01-0.73,21.49,6.92,43.76c6.18,18,18.47,37.46,45.82,39.91
		c36.69,3.28,60.25,4.42,74.8,4.7c17.08,0.33,30.67,14.46,30.34,31.54c0,0.18-0.01,0.35-0.02,0.53L1084.1,421.02L1084.1,421.02z"/>
</g>
</svg>
