<svg id="Layer_1" data-name="Layer 1" xmlns="http://www.w3.org/2000/svg" viewBox="0 0 146.06 744.23"><defs><style>.cls-1{fill-rule:evenodd;}</style></defs><path class="cls-1" d="M175.41,401h0a1.15,1.15,0,0,1,0-.19c-.11-6.21,4.52-11.35,10.34-11.47,5-.1,13-.52,25.5-1.71,9.33-.89,13.52-8,15.62-14.51a52.81,52.81,0,0,0,2.36-15.92v-.4s-.5-202.79.54-243c2-76.32,80.13-84.88,80.13-84.88h0c5.8-.59,11,3.94,11.52,10.12s-3.69,11.69-9.49,12.29h0S252.33,57,250.85,114.44c-1,39.48-.55,236.37-.54,242.14a78.56,78.56,0,0,1-3.49,23.84c-2.4,7.46-6.32,15-12.51,20.58,6.19,5.62,10.11,13.13,12.51,20.59a78.62,78.62,0,0,1,3.49,23.81c0,5.8-.48,202.69.54,242.17,1.48,57.46,61.06,63.09,61.06,63.09h0c5.8.6,10.05,6.1,9.49,12.29s-5.72,10.71-11.52,10.12h0s-78.17-8.56-80.13-84.88c-1-40.19-.54-243-.54-243v-.4a52.81,52.81,0,0,0-2.36-15.92c-2.1-6.54-6.29-13.62-15.62-14.51-12.5-1.2-20.53-1.61-25.5-1.71-5.82-.12-10.45-5.26-10.34-11.47a1.15,1.15,0,0,1,0-.19Z" transform="translate(-175.4 -28.89)"/></svg>