<svg id="Layer_1" data-name="Layer 1" xmlns="http://www.w3.org/2000/svg" viewBox="0 0 172 841.89"><defs><style>.cls-1{fill-rule:evenodd;}</style></defs><path class="cls-1" d="M430,421c0,.07,0,.14,0,.21a12.61,12.61,0,0,1-12.18,13c-5.85.11-15.3.58-30,1.93-11,1-15.92,9-18.4,16.42a57.51,57.51,0,0,0-2.77,18V471s.59,229.41-.63,274.86c-2.32,86.34-94.37,96-94.37,96h0a12.51,12.51,0,0,1-13.56-11.45,12.66,12.66,0,0,1,11.17-13.9h0s70.17-6.37,71.91-71.37c1.2-44.66.65-267.39.63-273.95a86,86,0,0,1,4.11-26.93c2.83-8.44,7.44-16.93,14.73-23.29-7.29-6.35-11.9-14.84-14.73-23.28a86.23,86.23,0,0,1-4.11-27c0-6.54.57-229.26-.63-273.92-1.74-65-71.91-71.37-71.91-71.37h0a12.66,12.66,0,0,1-11.17-13.9A12.51,12.51,0,0,1,271.62.06h0s92.05,9.68,94.37,96c1.22,45.45.63,274.86.63,274.86v.45a57.51,57.51,0,0,0,2.77,18c2.48,7.4,7.42,15.41,18.4,16.42,14.73,1.35,24.18,1.82,30,1.93a12.61,12.61,0,0,1,12.18,13c0,.07,0,.14,0,.21Z" transform="translate(-258 0)"/></svg>